<svg width="342" height="283" viewBox="0 0 342 283" fill="none" xmlns="http://www.w3.org/2000/svg">
<g clip-path="url(#clip0_1_2)">
<path d="M45 275H295" stroke="#E2E2F2" stroke-width="16" stroke-miterlimit="10" stroke-linecap="round"/>
<path d="M110 175V253" stroke="#EBA13D" stroke-width="28" stroke-linecap="round"/>
<path d="M225 175V253" stroke="#EBA13D" stroke-width="28" stroke-linecap="round"/>
<path d="M93 155C93 155 57.1318 153.449 47 113C41.5068 87.67 37.763 72.4856 15 65" stroke="#EBA13D" stroke-width="28" stroke-miterlimit="10" stroke-linecap="round"/>
<path d="M216 116H134C101.415 116 75 142.415 75 175V175C75 207.585 101.415 234 134 234H216C248.585 234 275 207.585 275 175V175C275 142.415 248.585 116 216 116Z" fill="#EBA13D"/>
<path d="M162 149C153.91 149.899 147.436 121.709 146.21 116H166.265C167.17 123.303 169.674 148.147 162 149Z" fill="#D48533"/>
<path d="M140.214 116C141.609 122.637 149.024 159.089 139 160C128.778 160.929 121.146 123.132 120.118 117.642C127 116 130 116 140.214 116Z" fill="#D48533"/>
<path d="M94.4213 131.244C100.47 125.763 107.592 121.598 115.335 119.014C116 123 122 156 113 158C104 160 94.4213 131.244 94.4213 131.244V131.244Z" fill="#D48533"/>
<path d="M247 179C253.075 179 258 174.075 258 168C258 161.925 253.075 157 247 157C240.925 157 236 161.925 236 168C236 174.075 240.925 179 247 179Z" fill="#FFDF45"/>
<path d="M167 114C167 114 178.57 137.299 211.647 145.951C225.203 148.889 237.969 152.415 266 143.764" stroke="#AC1515" stroke-width="12" stroke-miterlimit="10" stroke-linecap="round"/>
<path d="M215.99 36.98C221.468 53.8614 214.905 71.1294 201.33 75.5541C187.755 79.9788 172.303 69.8715 166.844 52.9902C158.723 27.9594 168.037 3.6333 177.058 0.6966C185.355 -2.0149 207.815 11.7877 215.99 36.9801L215.99 36.98Z" fill="#EBA13D"/>
<path d="M210.113 37.783C214.374 51.113 209.273 64.7482 198.715 68.2378C188.158 71.7274 176.147 63.7518 171.886 50.4214C165.57 30.6614 172.813 11.4559 179.824 9.1343C186.3 6.9943 203.758 17.8904 210.113 37.783Z" fill="#D48533"/>
<path d="M257.01 36.98C251.532 53.8614 258.095 71.1294 271.67 75.5541C285.245 79.9788 300.697 69.8715 306.156 52.9902C314.278 27.9594 304.963 3.63329 295.942 0.696593C287.645 -2.01461 265.185 11.788 257.01 36.98Z" fill="#EBA13D"/>
<path d="M262.887 37.783C258.626 51.113 263.727 64.7482 274.285 68.2378C284.842 71.7274 296.853 63.7518 301.114 50.4214C307.43 30.6614 300.187 11.4559 293.176 9.13428C286.7 6.99428 269.242 17.8904 262.887 37.783V37.783Z" fill="#D48533"/>
<path d="M315 79.265C315 122.417 280.077 146 237 146C193.923 146 159 122.417 159 79.265C159 36.113 200.719 4 237 4C272.439 4.02 315 36.1331 315 79.265Z" fill="#EBA13D"/>
<path d="M205 71C205 68.4288 205.762 65.9154 207.191 63.7776C208.619 61.6397 210.65 59.9735 213.025 58.9896C215.401 58.0056 218.014 57.7482 220.536 58.2498C223.058 58.7514 225.374 59.9895 227.192 61.8076C229.01 63.6257 230.249 65.9421 230.75 68.4638C231.252 70.9856 230.994 73.5994 230.01 75.9749C229.026 78.3503 227.36 80.3806 225.222 81.8091C223.085 83.2376 220.571 84 218 84C214.552 84 211.246 82.6304 208.808 80.1924C206.37 77.7544 205 74.4478 205 71V71Z" fill="#33281B"/>
<path d="M233 84H203V100H233V84Z" fill="#EBA13D"/>
<path d="M233 42H203V58H233V42Z" fill="#EBA13D"/>
<path d="M267 71C267 68.4288 267.762 65.9154 269.191 63.7776C270.619 61.6397 272.65 59.9735 275.025 58.9896C277.401 58.0056 280.014 57.7482 282.536 58.2498C285.058 58.7514 287.374 59.9895 289.192 61.8076C291.01 63.6257 292.249 65.9421 292.75 68.4638C293.252 70.9856 292.994 73.5994 292.01 75.9749C291.026 78.3503 289.36 80.3806 287.222 81.8091C285.085 83.2376 282.571 84 280 84C276.552 84 273.246 82.6304 270.808 80.1924C268.37 77.7544 267 74.4478 267 71V71Z" fill="#33281B"/>
<path d="M295 84H265V100H295V84Z" fill="#EBA13D"/>
<path d="M295 42H265V58H295V42Z" fill="#EBA13D"/>
<path d="M216 94L158 85" stroke="#33281B" stroke-width="3.4" stroke-miterlimit="10" stroke-linecap="round"/>
<path d="M158 108L216 100" stroke="#33281B" stroke-width="3.4" stroke-miterlimit="10" stroke-linecap="round"/>
<path d="M282 94L340 86" stroke="#33281B" stroke-width="3.4" stroke-miterlimit="10" stroke-linecap="round"/>
<path d="M340 108L282 100" stroke="#33281B" stroke-width="3.4" stroke-miterlimit="10" stroke-linecap="round"/>
<path d="M274 99.4848C274 111.082 262.807 123 249 123C235.193 123 224 111.082 224 99.4848C224 91.4523 235.193 81 249 81C262.807 81 274 91.3117 274 99.4848Z" fill="white"/>
<path d="M258 91.816C258 94.2004 253.973 98.5 249 98.5C244.027 98.5 240 94.2 240 91.816C240 89.432 244.027 87.5 249 87.5C253.973 87.5 258 89.4316 258 91.816Z" fill="#33281B"/>
<path d="M233.003 98C233.056 100.086 233.922 102.069 235.416 103.525C236.91 104.982 238.915 105.797 241.001 105.797C243.088 105.797 245.092 104.982 246.586 103.525C248.081 102.069 248.947 100.086 249 98C249 100.122 249.843 102.157 251.344 103.658C252.844 105.158 254.879 106.001 257.001 106.001C259.123 106.001 261.159 105.158 262.659 103.658C264.16 102.157 265.003 100.122 265.003 98" stroke="#33281B" stroke-width="3.4" stroke-linecap="round" stroke-linejoin="round"/>
</g>
<defs>
<clipPath id="clip0_1_2">
<rect width="342" height="283" fill="white"/>
</clipPath>
</defs>
</svg>
